<?xml version="1.0" encoding="utf-8"?>
<!-- Generator: Adobe Illustrator 23.0.2, SVG Export Plug-In . SVG Version: 6.00 Build 0)  -->
<svg version="1.1" xmlns="http://www.w3.org/2000/svg" xmlns:xlink="http://www.w3.org/1999/xlink" x="0px" y="0px" width="24px"
	 height="24px" viewBox="0 0 24 24" enable-background="new 0 0 24 24" xml:space="preserve">
<g id="Layer_1">
	<path d="M19,0H5C2.2,0,0,2.2,0,5v14c0,2.8,2.2,5,5,5h14c2.8,0,5-2.2,5-5V5C24,2.2,21.8,0,19,0z"/>
</g>
<g id="Layer_2">
	<g>
		<path fill="#FFFFFF" d="M5.1,11.6c0-1.4,0-2,0.3-2.7C5.9,7.5,7,6.7,8.6,6.7c1.2,0,2.3,0.6,2.8,1.6c0.1,0.1,0.1,0.3,0.1,0.4
			c0,0.4-0.3,0.6-0.6,0.6c-0.2,0-0.4-0.1-0.6-0.3c-0.4-0.7-1-1-1.8-1c-1.1,0-1.7,0.6-2,1.5c-0.2,0.5-0.2,1-0.2,2.3s0.1,1.8,0.2,2.3
			c0.3,0.9,0.9,1.5,2,1.5c0.8,0,1.3-0.3,1.8-1c0.2-0.2,0.3-0.3,0.6-0.3c0.3,0,0.6,0.2,0.6,0.6c0,0.1,0,0.3-0.1,0.4
			c-0.5,1-1.6,1.6-2.8,1.6c-1.6,0-2.7-0.8-3.2-2.3C5.2,13.6,5.1,13,5.1,11.6z"/>
		<path fill="#FFFFFF" d="M16.1,14.3L16.1,14.3l2.4-7.1c0.1-0.3,0.3-0.5,0.6-0.5c0.3,0,0.6,0.3,0.6,0.6c0,0.1,0,0.2-0.1,0.3
			l-2.8,8.1c-0.2,0.5-0.4,0.7-0.8,0.7c-0.4,0-0.6-0.2-0.8-0.7l-2.8-8.1c0-0.1-0.1-0.2-0.1-0.3c0-0.3,0.3-0.6,0.6-0.6
			c0.3,0,0.5,0.2,0.6,0.5L16.1,14.3z"/>
	</g>
</g>
</svg>
